<svg width="300" height="84" viewBox="0 0 300 84" fill="none" xmlns="http://www.w3.org/2000/svg">
<g clip-path="url(#clip0_135_10936)">
<path d="M205.063 72.3028C205.182 70.7978 204.746 69.4753 203.882 68.2241C203.002 66.9501 202.562 65.5737 203.225 64.056L203.33 63.7106C203.72 62.3431 203.542 61.0797 202.484 60.0309C201.689 59.2415 201.472 58.3361 201.704 57.2945C202.011 55.9256 201.91 54.6564 201.047 53.429C200.3 52.3639 200.17 51.1882 200.764 49.9282C201.266 48.8705 201.594 47.7283 201.912 46.6027C202.16 45.7257 202.161 44.797 201.815 43.9434C201.534 43.2472 201.607 42.6152 201.781 41.9299C201.967 41.207 202.07 40.4606 202.171 39.7214C202.25 39.1524 202.051 38.6494 201.607 38.259C201.023 37.7474 200.82 37.1102 200.918 36.3854C201.034 35.553 201.202 34.7298 200.747 33.9281C200.667 33.7885 200.714 33.5738 200.727 33.3947C200.839 31.9487 200.457 30.6027 199.863 29.2925C199.522 28.5372 199.378 27.7427 199.468 26.9212C199.64 25.3267 199.535 23.7357 199.245 22.1733C198.932 20.4928 198.44 18.8461 198.069 17.1745C197.939 16.5964 197.855 15.9881 197.893 15.4028C197.969 14.209 198.119 13.0172 198.286 11.8289C198.489 10.3969 198.856 9.00819 199.502 7.68742C200.122 6.40963 200.697 5.11036 201.272 3.8128C201.478 3.34387 201.654 2.8589 201.778 2.36476C201.928 1.77058 201.92 1.17096 201.544 0.630665C201.044 -0.0870484 200.384 -0.22119 199.729 0.380153C199.195 0.875731 198.689 1.44153 198.331 2.06065C197.627 3.27766 196.818 4.40497 195.842 5.43424C195.162 6.15196 194.872 7.00754 194.83 7.98465C194.754 9.88355 194.3 11.6626 192.86 13.0995C192.45 13.5094 192.09 13.9711 191.759 14.4435C191.425 14.9124 191.075 15.3974 190.885 15.9254C190.434 17.169 189.943 18.4219 189.713 19.714C189.407 21.4338 188.935 23.0985 188.458 24.7773C188.061 26.1714 187.382 27.3168 186.36 28.3228C185.712 28.96 185.258 29.7153 184.976 30.5491C184.636 31.5477 184.341 32.5572 184.058 33.5721C183.93 34.0339 183.842 34.5117 183.795 34.9858C183.578 37.255 183.405 39.5282 183.164 41.792C183.106 42.3288 183.157 42.925 182.767 43.4117L182.601 43.2724C181.979 42.4544 181.904 41.5077 181.808 40.5412C181.587 38.2754 181.345 36.015 181.441 33.7332C181.469 33.0441 181.441 32.3534 181.463 31.6643C181.482 31.1005 181.235 30.6818 180.789 30.3453C180.618 30.2183 180.442 30.1002 180.245 29.9603C180.281 29.5361 180.316 29.1191 180.351 28.704C180.431 27.6911 180.287 26.7498 179.601 25.8997C179.356 25.599 179.249 25.1229 179.253 24.7291C179.262 23.7127 179.361 22.6943 179.446 21.6794C179.511 20.8381 179.195 20.1545 178.58 19.5767C178.423 19.4317 178.219 19.3136 178.106 19.1436C177.93 18.8788 177.675 18.5726 177.693 18.2972C177.747 17.3146 177.837 16.3249 178.037 15.3621C178.194 14.6031 178.556 13.8854 178.782 13.1373C179.191 11.7842 179.618 10.4367 179.94 9.06409C180.105 8.36242 179.739 7.872 179.121 7.60573C178.529 7.34604 178.035 7.40853 177.561 8.02621C176.746 9.08587 175.983 10.19 175.29 11.3227C174.985 11.8254 174.86 12.4411 174.723 13.0213C174.496 13.9949 174.253 14.9632 173.492 15.7004C172.67 16.4986 172.22 17.4703 171.928 18.5317C171.881 18.7071 171.787 18.8716 171.679 19.1258C171.165 17.8624 170.956 17.7388 169.843 17.9928C169.803 17.8211 169.789 17.6402 169.719 17.4809C169.41 16.7669 168.822 16.656 168.268 17.2266C168.036 17.4631 167.799 17.7348 167.685 18.0338C167.256 19.1597 166.824 20.2872 166.488 21.4378C166.155 22.592 165.986 23.7895 165.662 24.9455C164.947 27.4905 164.42 30.089 163.272 32.5125C163.131 32.8077 163.079 33.1442 163.015 33.4663C162.682 35.2007 162.733 36.9259 163.116 38.6494C163.575 40.7002 163.531 42.7619 163.195 44.8239C162.982 46.157 162.163 47.186 161.281 48.1723C159.884 49.731 159.273 51.5241 159.447 53.5769C159.531 54.5756 159.753 55.5246 160.174 56.4426C160.905 58.028 161.174 59.6511 160.513 61.3319C160.402 61.6114 160.322 61.9086 160.284 62.2036C160.185 62.9482 160.155 63.6785 160.509 64.4068C160.71 64.8239 160.8 65.3249 160.803 65.7901C160.816 67.6211 160.771 69.4503 160.767 71.281C160.766 71.6049 160.829 71.938 160.921 72.2513C161.051 72.7058 161.328 73.0782 161.836 73.1905C162.386 73.3123 162.723 72.9687 163.008 72.5986C163.517 71.9345 163.877 71.2005 163.963 70.3753C164.121 68.8917 164.631 67.5211 165.237 66.1624C165.511 65.5436 165.623 64.8328 165.67 64.1563C165.76 62.8284 165.454 61.5328 165.166 60.2404C165.095 59.9237 165.042 59.578 165.1 59.2651C165.387 57.7241 166.003 56.2976 167.23 55.2457C168.24 54.3741 168.66 53.3895 168.486 52.1335C168.446 51.8345 168.47 51.5267 168.405 51.2349C168.197 50.3312 168.321 49.4596 168.532 48.5681C168.821 47.3422 169.146 46.1092 169.253 44.8618C169.431 42.7906 169.802 40.765 170.312 38.7532C170.667 37.357 170.673 35.9718 170.152 34.5919C169.647 33.2497 169.692 31.8896 170.181 30.5313C170.424 29.8528 170.559 29.1406 170.793 28.4587C171.051 27.7034 171.231 26.9017 171.966 26.1339C172.026 26.569 172.108 26.8499 172.095 27.1236C172.044 28.0222 171.979 28.9187 171.885 29.8101C171.767 30.9681 172.026 31.9613 173.101 32.6397C173.579 32.9384 173.824 33.37 173.916 33.8997C174.011 34.4314 174.291 34.9324 174.768 35.142C175.899 35.6413 176.089 36.5699 176.194 37.5777L176.222 37.846C176.445 39.6391 176.775 41.3879 177.707 43.0127C178.084 43.668 178.135 44.5 178.301 45.257C178.413 45.7529 178.367 46.2989 178.565 46.7552C178.957 47.6624 178.891 48.563 178.792 49.4968C178.588 51.4854 179.15 52.6342 180.993 52.9833C181.448 53.069 181.703 53.3342 181.746 53.7833C181.793 54.229 181.854 54.6744 181.915 55.1201C182.072 56.2836 182.262 57.4433 183.022 58.4204C183.466 58.9913 184.033 59.3209 184.811 59.149C185.451 59.0057 185.982 58.3811 186.053 57.6207C186.12 56.9333 186.178 56.2388 186.137 55.5535C186.024 53.685 186.598 52.0082 187.529 50.3974C187.795 49.9374 188.005 49.4077 188.079 48.8883C188.214 47.9416 188.261 46.9791 188.291 46.0212C188.346 44.2925 188.672 42.6765 190.127 41.4684L190.316 41.2678C191.624 39.5569 192.364 37.7081 191.905 35.5461C191.554 33.8854 191.856 32.2674 192.319 30.6674C192.409 30.3542 192.543 30.0518 192.66 29.7439C192.819 30.1128 192.819 30.4421 192.819 30.7712C192.821 31.7879 193.147 32.6523 194.063 33.2591C194.291 33.411 194.484 33.6188 194.67 33.8226C195.123 34.3257 195.364 34.8929 195.166 35.5659C194.982 36.2011 194.797 36.8348 194.595 37.4665C194.201 38.6961 193.626 39.9023 193.437 41.1585C193.169 42.9411 193.261 44.754 193.988 46.4775C194.136 46.8338 194.286 47.2147 194.31 47.5925C194.359 48.4607 194.385 49.3357 194.327 50.2019C194.126 53.1226 194.96 55.714 196.936 57.9586C197.45 58.5385 197.494 59.1487 197.303 59.8845C197.043 60.8937 196.869 61.9335 196.786 62.97C196.695 64.0832 197.176 64.9566 198.337 65.3825L198.498 65.5439C198.498 66.1094 198.504 66.7088 198.495 67.3064C198.485 68.1009 198.761 68.7865 199.39 69.3073C199.884 69.7192 200.392 70.1359 200.952 70.4581C201.524 70.7892 201.696 71.2134 201.613 71.8147C201.535 72.3785 201.505 72.9475 201.466 73.5167C201.434 73.9942 201.559 74.415 202.043 74.6566C202.49 74.8802 202.818 74.6208 203.153 74.3898L203.335 74.3792L203.455 74.5047C204.003 75.0327 204.357 75.1218 204.843 74.857C205.326 74.5921 205.427 74.2058 205.251 73.5328C205.145 73.1318 205.031 72.7058 205.063 72.3028Z" fill="#11B0C8"/>
<path d="M55.1083 75.7643C54.9247 74.6531 54.4492 73.6507 53.6173 72.8167C52.6171 71.8057 52.0063 70.6371 51.9127 69.2158C51.8041 67.5834 50.8246 66.5077 49.2736 65.935C48.7639 65.7456 48.4024 65.4896 48.1591 65.0456C47.8687 64.5157 47.5372 64.0006 47.2957 63.4511C46.9885 62.7549 46.4527 62.2863 45.7315 62.1338C44.8903 61.9529 44.5195 61.4645 44.3341 60.7468C44.2648 60.4837 44.1712 60.226 44.1298 59.9592C43.8472 58.2394 42.8635 56.9794 41.32 56.1095C40.8274 55.8303 40.582 55.4419 40.3498 54.9604C39.8776 53.985 39.4468 52.9451 38.7499 52.1291C37.7569 50.9674 36.5077 50.0725 34.7431 50.7384L34.5202 50.6793C34.3069 50.2517 34.1137 49.7756 33.844 49.3422C33.1846 48.2917 32.7538 48.1989 31.6486 48.8074L31.4971 48.8163C31.4014 48.6265 31.2985 48.417 31.1899 48.2077C30.8116 47.4849 30.4723 46.7382 30.0418 46.044C29.6557 45.4209 29.1895 44.8556 28.2772 44.8966C28.045 44.9072 27.8032 44.6997 27.3931 44.5157C27.8521 44.211 28.0897 44.0089 28.3633 43.8803C29.2156 43.4738 29.86 42.8831 30.1822 42.0241C30.3283 41.6374 30.6001 41.4227 30.9652 41.3152C31.4128 41.1845 31.8736 41.0684 32.3383 41.0289C33.5896 40.9214 34.4194 40.2091 35.0281 39.2713C35.6557 38.3048 36.1183 37.2454 36.3133 36.1035C36.4126 35.5128 36.5212 34.9759 37.1581 34.6165C37.4596 34.4465 37.6471 33.9971 37.7575 33.6394C37.8925 33.1848 37.9507 32.6924 37.945 32.22C37.9357 31.3985 38.1511 30.7115 38.7691 30.0992C39.9007 28.988 40.2208 27.6133 39.9568 26.1045C39.7432 24.8858 39.6085 23.692 40.0825 22.4733C40.6462 21.0307 40.2865 19.7474 38.9959 18.7758C38.6008 18.4785 38.4544 18.1512 38.5219 17.6949C38.563 17.4281 38.5912 17.1578 38.6041 16.8878C38.6491 15.9625 38.7052 15.0373 38.7109 14.1103C38.7109 13.8561 38.617 13.5554 38.458 13.3531C37.336 11.9303 36.4348 11.4955 34.852 12.0234C34.5259 12.1326 34.198 12.2527 33.8611 12.3026C33.316 12.3883 33.1231 12.2203 33.0649 11.6958C33.0238 11.3091 33.0181 10.9156 32.9356 10.5361C32.7706 9.73986 32.2894 9.3532 31.4332 9.31021C31.1221 9.29387 30.802 9.30849 30.4966 9.36581C29.5507 9.54295 28.7377 9.39276 27.9697 8.76963C27.4303 8.32765 26.7634 8.01982 26.1247 7.70137C25.0138 7.14646 23.8693 6.65261 22.7659 6.08509C22.0843 5.73081 21.3781 5.54451 20.6116 5.51785C20.2369 5.50352 19.8511 5.55368 19.4839 5.49091C18.2665 5.28167 17.2828 5.70588 16.3501 6.40209C15.3106 7.17713 14.2522 7.93211 13.1656 8.64638C11.7382 9.58594 10.1929 10.0566 8.4526 9.52518L8.0854 9.45352C7.3774 9.24056 6.7384 9.41597 6.0886 9.70575C5.0416 10.1747 4.1704 10.8439 3.4267 11.6726C2.9902 12.1613 2.5462 12.3473 1.8718 12.0521C1.2724 11.7924 0.925897 11.8999 0.641197 12.3493C-0.0404026 13.425 -0.480803 15.2021 0.933397 16.4833C1.162 16.6891 1.3906 16.8952 1.6324 17.0864C2.6122 17.8614 2.7448 18.8348 2.3833 19.9355C2.2261 20.4204 2.0518 20.9074 1.9582 21.4047C1.5778 23.4538 1.7449 25.3582 3.5731 26.8205C3.955 27.1249 4.2811 27.5061 4.5865 27.8853C5.1334 28.5638 5.5456 29.2849 5.2966 30.2067C5.1091 30.9009 5.0287 31.6204 4.8451 32.3131C4.6894 32.8984 4.6894 33.4261 5.0512 33.9489C5.1805 34.1349 5.2723 34.4015 5.2498 34.6165C5.1901 35.1783 5.3155 35.6847 5.5684 36.1823C5.8402 36.7137 5.8624 37.242 5.6866 37.8324C5.398 38.7952 5.5087 39.7331 6.2185 40.5436C6.5218 40.889 6.7954 41.2542 7.0987 41.5996C7.5502 42.1115 7.7731 42.6538 7.5613 43.3411C7.3216 44.1179 7.447 44.8588 7.8142 45.6049C8.5936 47.1922 9.0994 48.8747 9.1069 50.634C9.1087 51.6312 9.208 52.6742 8.5825 53.5998C8.0542 54.3785 8.3557 55.1639 8.8951 55.7578C9.6445 56.5847 9.9949 57.5564 10.3693 58.5446C10.5454 59.0118 10.5043 59.4094 10.2289 59.8227C9.4027 61.0664 9.3577 62.4015 9.6931 63.8048C9.9292 64.7908 10.3936 65.6679 10.9555 66.4983C11.3563 67.0904 11.6578 67.7027 11.7703 68.3934C11.8642 68.9804 12.1075 69.4726 12.5947 69.8627C12.7483 69.9862 12.898 70.194 12.9148 70.3783C13.0159 71.3551 13.2595 72.3185 12.9655 73.3208C12.6658 74.3389 12.913 74.8795 13.8853 75.4324C14.5372 75.8027 14.7769 76.3293 14.8144 76.9876C14.8426 77.4958 14.8069 78.0098 14.8333 78.5179C14.8858 79.4162 15.1723 80.2271 15.9217 80.8287C16.2607 81.1007 16.6261 81.3799 17.1055 81.1864C17.5942 80.9932 17.7931 80.5745 17.8024 80.0984C17.8153 79.5312 17.7874 78.9582 17.7481 78.391C17.6806 77.4015 17.7181 76.462 18.7822 75.9033L18.9208 75.7832C20.0374 74.7259 20.1535 73.6158 19.378 72.3022C18.8086 71.3357 18.5482 70.3101 19.0576 69.2097C19.258 68.7764 19.4251 68.2986 19.4605 67.8299C19.4923 67.3716 19.4491 66.8508 19.2415 66.4501C18.8386 65.6771 18.3088 64.9611 17.8084 64.2345C17.0236 63.0963 16.5796 61.9352 17.4244 60.639L17.5405 60.394C18.3421 58.9964 18.4132 57.6002 17.5069 56.217C17.2297 55.7942 17.194 55.3883 17.5051 54.9624C18.0838 54.1785 17.9695 53.3945 17.518 52.5926C17.2501 52.1202 17.0179 51.6226 16.8304 51.1179C16.4707 50.1514 16.7968 49.5641 18.0013 49.1562C18.4789 49.6535 18.994 50.2173 19.5373 50.7561C20.3446 51.5541 21.3487 51.8619 22.4578 51.5598C23.2933 51.3325 23.7877 51.6636 24.1942 52.2506C24.6268 52.8772 24.994 53.5427 25.438 54.1584C25.792 54.6468 26.1778 55.1283 26.6275 55.5365C27.0976 55.9679 27.4648 55.9105 27.9349 55.4772C28.8079 54.6652 28.9951 54.6505 29.8288 55.4792C30.286 55.9392 30.7786 56.2665 31.468 56.1883C31.9831 56.1272 32.311 56.333 32.515 56.7644C32.9515 57.6914 33.4198 58.606 33.8206 59.5455C34.3228 60.7267 35.1526 61.0991 36.3496 60.6158C36.5218 60.5462 36.6907 60.4656 36.8665 60.3974C37.5427 60.1363 37.612 60.1234 37.9999 60.7497C38.4775 61.521 38.914 62.3195 39.3148 63.1318C39.8524 64.215 40.7365 64.9252 41.9299 65.1256C42.6565 65.2491 43.0387 65.575 43.3309 66.1385C43.4827 66.434 43.6663 66.717 43.8181 67.0122C44.5225 68.3777 45.3205 69.652 46.9669 70.1588L47.2816 70.3519C48.0928 70.8888 48.859 71.4451 48.9133 72.5191C48.9694 73.5862 49.4263 74.5487 49.8424 75.5224C50.1271 76.1865 50.5411 76.7217 51.2119 77.0653C51.757 77.3462 52.1278 77.765 52.345 78.3308C52.5529 78.8639 52.804 79.3847 53.068 79.8929C53.437 80.5983 54.1075 81.0368 54.5779 80.9184C55.0669 80.7949 55.3252 80.2813 55.3009 79.399C55.2916 79.0124 55.0837 78.583 55.2016 78.2479C55.5037 77.3909 55.2433 76.5803 55.1083 75.7643ZM26.5288 37.5951C26.3341 37.7132 26.0866 37.7616 25.8562 37.8101C25.3447 37.9244 24.811 37.9729 24.3145 38.1305C23.7526 38.3097 23.1961 38.535 22.6792 38.8141C22.282 39.0308 21.898 39.3189 21.6115 39.6534C21.1993 40.1383 20.7142 40.4748 20.0509 40.7291C19.8259 40.5485 19.6108 40.3353 19.3579 40.1725C18.2488 39.4582 17.5783 39.4066 16.6924 40.0418C16.4506 40.2154 16.1677 40.3318 15.6901 40.5895C15.7801 40.024 15.8044 39.6554 15.9037 39.3063C15.9955 38.9913 16.1827 38.7032 16.3045 38.3954C16.6792 37.4504 16.5649 37.0548 15.6619 36.5071C15.2911 36.2835 15.1504 36.0255 15.16 35.6286C15.175 35.0289 15.1657 34.4276 15.1618 33.8263C15.1582 32.9403 14.7889 32.2782 13.9237 31.8789C13.3429 31.6103 13.2925 31.4172 13.435 30.8015C13.5247 30.4257 13.5997 30.0391 13.6447 29.6544C13.804 28.3586 13.126 27.4565 12.1294 26.6887C11.959 26.558 11.7847 26.3092 11.7904 26.1177C11.8129 25.1996 11.4925 24.2816 11.8693 23.3598C12.1072 22.7745 11.7193 22.3056 11.3035 21.9278C10.6516 21.3408 10.5748 20.6285 10.7359 19.8589C10.8688 19.2112 11.1799 19.016 11.86 19.1054C12.0454 19.1323 12.2404 19.1358 12.418 19.1859C13.9618 19.6316 15.1774 19.0716 16.2526 18.0621C16.4305 17.8938 16.6177 17.7307 16.792 17.559C17.3821 16.9755 18.1108 16.7697 18.9352 16.8522C19.4671 16.9041 19.9915 17.0256 20.5219 17.0526C21.2074 17.0884 21.8932 17.0635 22.6573 17.0635C24.1558 19.6637 24.7984 19.9753 27.1063 19.1733C27.6607 19.7085 28.2844 20.1937 27.8779 21.1384C27.6925 21.5735 27.8611 22.037 28.1851 22.4002C28.6309 22.9032 29.0767 23.4079 29.5657 23.8714C29.8972 24.1881 30.3019 24.4352 30.6823 24.7198C30.4387 25.1045 30.3226 25.3086 30.1858 25.4966C29.6296 26.2645 29.5189 26.8013 30.124 27.4634C30.9595 28.3743 30.5212 29.3337 30.4723 30.2913L30.3544 30.5275C29.7589 31.1684 29.1517 31.8035 28.558 32.4461C27.97 33.0816 27.7939 33.8761 27.6589 34.6761C27.5803 35.1485 27.5524 35.6303 27.4735 36.1044C27.3697 36.718 27.0982 37.2549 26.5288 37.5951Z" fill="#11B0C8"/>
<path d="M299.381 36.9955C298.941 36.7917 298.52 36.888 298.107 37.0583C297.045 37.4968 295.968 37.9101 294.936 38.406C294.269 38.7244 293.565 39.079 293.063 39.5837C291.491 41.1694 289.229 41.7455 287.543 43.1471L287.374 43.2256C285.864 43.8072 284.382 44.4747 282.833 44.9419C281.483 45.3484 280.095 45.5931 279.184 46.8282C279.162 46.5063 279.192 46.2449 279.285 46.005C279.563 45.2982 279.435 44.6467 279.033 44.0307C278.735 43.5727 278.396 43.1379 278.1 42.6779C277.957 42.4577 277.781 42.2001 277.785 41.9636C277.8 41.3749 277.527 40.9472 277.182 40.4961C276.961 40.2008 276.779 39.8019 276.768 39.4456C276.71 37.5897 276.719 35.7335 276.682 33.8796C276.663 32.9455 276.241 32.2203 275.384 31.723C275.134 31.578 274.855 31.3274 274.782 31.0769C274.261 29.2637 273.119 27.6368 273.033 25.6952C273.021 25.4894 272.958 25.2782 272.881 25.085C272.263 23.5458 271.669 21.9977 270.996 20.4821C270.719 19.8555 270.289 19.2811 269.867 18.7245C269.706 18.5167 269.309 18.2682 269.125 18.3306C268.855 18.4183 268.555 18.7477 268.501 19.0163C268.404 19.5049 268.462 20.0237 268.482 20.5322C268.535 22.084 268.6 23.6393 268.664 25.2177C267.641 25.4361 267.394 26.0876 267.452 26.8678C267.531 27.9114 267.658 28.9493 267.782 29.9872C267.853 30.5814 268.012 31.1687 268.031 31.7625C268.065 32.9311 268.044 34.1034 268.023 35.272C268.001 36.5822 268.224 37.8494 268.814 39.0305C269.305 40.0217 269.61 41.0455 269.661 42.1373C269.689 42.7048 269.721 43.2758 269.702 43.8433C269.685 44.4051 269.899 44.8471 270.35 45.175C270.665 45.4023 271.024 45.5719 271.547 45.8729C271.139 47.2883 270.762 48.74 270.298 50.168C269.854 51.5389 269.252 52.8543 269.663 54.3651C269.85 55.047 269.563 55.3264 268.851 55.5606C268.407 55.7076 267.943 55.8025 267.505 55.965C266.368 56.3889 265.21 56.7776 264.116 57.2933C263.174 57.739 263.119 58.3096 263.786 59.0953L263.93 59.2939L263.822 59.4622C263.61 59.5874 263.393 59.7072 263.17 59.8164C261.748 60.5198 260.6 61.5328 259.586 62.6924C258.899 63.4798 258.888 64.0098 259.446 64.8132C260.096 65.7456 260.081 66.0572 259.221 66.7995C258.176 67.7053 257.104 68.5843 256.029 69.4557C255.542 69.8512 255.13 70.2754 254.905 70.8662C254.83 71.0645 254.649 71.3027 254.456 71.3692C253.317 71.7645 252.605 72.5716 252.05 73.5436C251.557 74.4098 250.898 75.1148 249.977 75.5714C249.478 75.8162 248.935 75.983 248.446 76.2445C246.26 77.413 244.465 79.0594 242.678 80.6989C242.268 81.075 242.026 81.6422 241.788 82.1558C241.539 82.6872 241.42 83.2565 241.996 83.7128C242.481 84.0957 243.06 84.0977 243.748 83.7111L244.132 83.4534C245.405 82.4316 246.659 81.3883 247.953 80.3911C248.433 80.0205 248.972 79.659 249.547 79.4767C250.671 79.1187 251.834 78.8628 252.995 78.614C254.251 78.342 255.343 77.8516 256.253 76.9387C257.463 75.7216 258.744 74.5691 260.001 73.3934C260.202 73.2073 260.417 73.0193 260.655 72.8835C261.468 72.4145 262.062 71.7487 262.403 70.9307C263.006 69.4775 264.01 68.2963 265.05 67.1311C265.516 66.6066 266.033 66.1182 266.467 65.5685C266.743 65.2214 266.996 64.8155 267.105 64.3962C267.449 63.1003 268.224 62.1522 269.379 61.429C270.978 60.4232 272.548 59.3833 274.14 58.3652C274.837 57.9213 275.346 57.3397 275.725 56.6237C275.963 56.1746 276.266 55.7452 276.604 55.3568C277.572 54.2381 278.814 53.5473 280.281 53.1354C282.634 52.4751 284.306 50.9969 285.364 48.9011C285.642 48.3536 286.063 47.983 286.573 47.6861C286.917 47.482 287.294 47.3172 287.674 47.1813C288.779 46.7838 289.72 46.1558 290.604 45.4166C291.121 44.9835 291.668 44.5558 292.27 44.2497C294.09 43.3299 295.697 42.1379 297.187 40.7956C298.054 40.0154 298.882 39.1905 299.689 38.3544C300.207 37.8224 300.059 37.3088 299.381 36.9955Z" fill="#11B0C8"/>
<path d="M146.383 53.1925C145.86 51.997 145.395 50.7994 145.48 49.4626C145.538 48.5408 145.455 47.6122 145.491 46.6886C145.519 45.9423 145.549 45.1833 145.723 44.4604C146.032 43.1789 146.439 41.9154 146.827 40.6517C147.008 40.063 146.969 39.5046 146.568 39.0323C145.999 38.3575 145.937 37.6023 146.13 36.8221C146.37 35.8627 146.692 34.9197 146.958 33.9656C147.053 33.6239 147.162 33.2642 147.143 32.9168C147.115 32.3246 146.87 31.7766 146.255 31.5353C145.6 31.2756 145.013 31.5172 144.564 31.9987C144.255 32.3301 143.932 32.6932 143.766 33.0997C143.47 33.8191 143.258 34.5761 143.063 35.3296C142.683 36.806 142.338 38.2933 141.977 39.7735L141.851 40.1117C141.113 41.1997 140.857 42.4239 140.684 43.6822C140.596 44.3352 140.235 44.7651 139.592 45.1282C138.663 45.6565 137.798 46.3275 137.024 47.0521C136.29 47.738 135.702 48.5663 135.054 49.3342C135.072 48.81 135.043 48.278 135.138 47.7701C135.471 46.0053 135.857 44.2477 136.215 42.4833C136.393 41.6027 136.586 40.7185 136.702 39.8291C136.76 39.3656 136.753 38.8574 136.614 38.4154C136.442 37.8694 136.093 37.363 135.391 37.322C134.722 37.279 134.265 37.6278 133.943 38.156C133.834 38.3369 133.738 38.5284 133.656 38.7216C132.832 40.6744 132.013 42.6286 131.137 44.7138C130.844 43.4394 130.299 42.5139 128.803 42.8418C128.278 42.0095 128.149 41.145 127.971 40.2986C127.829 39.6273 127.493 39.069 127.004 38.5805C126.626 38.2028 126.147 38.2028 125.693 38.3621C125.23 38.5269 124.919 38.8437 124.919 39.3805C124.919 39.8262 124.846 40.2716 124.813 40.7191C124.756 41.4617 124.663 42.2064 124.659 42.949C124.657 43.7258 124.706 44.508 124.799 45.281C124.94 46.4373 124.2 47.1963 123.567 48.1163C123.254 47.5075 122.941 47.0174 122.743 46.4857C122.608 46.1297 122.668 45.713 122.581 45.3352C122.445 44.7516 122.239 44.1841 122.1 43.6008C121.943 42.9333 121.815 42.2585 121.695 41.5873C121.637 41.2616 121.654 40.9272 121.592 40.6047C121.293 39.0477 120.826 37.5195 120.82 35.9141C120.819 35.4127 120.744 34.8957 120.609 34.4107C120.455 33.865 120.03 33.5766 119.595 33.6715C119.039 33.795 118.481 33.9739 118.181 34.4838C117.878 35.0029 117.595 35.5414 117.381 36.0998C117.156 36.6888 117.023 37.3096 116.855 37.9181C116.739 38.3441 116.49 38.6072 115.995 38.584C115.09 38.5447 114.635 39.0867 114.313 39.7829C114.087 40.2771 113.926 40.7996 113.663 41.2757C112.972 42.5409 112.798 43.8278 113.369 45.1755C113.564 45.6353 113.609 46.1042 113.427 46.5769C112.803 48.2035 112.504 49.9467 111.492 51.4378C111.292 51.733 111.116 52.0907 111.086 52.4347C111.033 53.0162 110.891 53.7377 111.17 54.1742C111.674 54.9492 111.77 55.7188 111.745 56.5635C111.738 56.7406 111.764 56.9267 111.807 57.0986C111.953 57.6498 112.407 58.0434 112.903 58.0686C113.45 58.0935 113.787 57.8252 113.991 57.1485C114.143 56.6547 114.325 56.1983 114.727 55.8226C115.196 55.382 115.295 54.8022 115.065 54.235C114.879 53.7698 115.02 53.4244 115.288 53.0698C115.49 52.8033 115.732 52.5547 115.891 52.2684C116.044 51.9875 116.207 51.6668 116.206 51.3644C116.196 50.3552 116.764 49.6357 117.374 48.8535C117.588 49.0092 117.715 49.1579 117.878 49.2133C118.626 49.4583 118.891 50.0508 119.1 50.6897C119.394 51.606 119.62 52.5459 119.988 53.4333C120.49 54.6557 121.093 55.8389 121.662 57.0379L121.894 57.3185C122.206 57.6335 122.571 57.7192 123.007 57.5779C123.582 57.397 123.927 57.023 123.931 56.4575C123.934 55.2622 123.892 54.0647 123.858 52.8677C123.839 52.1982 123.792 51.5269 123.755 50.7539C124.416 51.0907 124.676 51.4736 124.62 52.0497C124.594 52.3166 124.643 52.5937 124.6 52.8569C124.429 53.891 125.133 54.4585 125.842 55.0189C126.113 55.2318 126.45 55.2356 126.709 55.0063C127.38 54.4086 128.037 53.7964 127.908 52.7889C127.872 52.5278 127.865 52.2432 127.932 51.9907C128.193 51.0224 128.097 50.0918 127.702 49.1789C127.57 48.8782 127.513 48.5901 127.709 48.2232C128.166 48.6208 128.642 48.9014 128.921 49.3078C129.579 50.2528 130.159 51.248 130.733 52.2429C131.186 53.0285 131.57 53.8483 132.01 54.6411C132.241 55.0544 132.582 55.3817 133.125 55.3336C133.675 55.2834 134.044 55.0008 134.198 54.4674C134.293 54.1329 134.434 53.8107 134.573 53.4333L134.695 53.562L134.732 53.8268C134.809 55.051 135.504 55.8045 136.678 56.2181C137.088 56.3612 137.489 56.5331 137.868 56.7355C139.404 57.5567 141.144 57.2506 142.24 55.9496C142.412 55.7458 142.575 55.5345 142.819 55.2321C142.922 55.6867 143.004 56.0321 143.074 56.3775C143.253 57.2313 143.69 57.9488 144.342 58.5412C144.956 59.0996 145.793 59.1409 146.498 58.6846C147.118 58.2818 147.446 57.7628 147.38 57.0167C147.261 55.6856 146.916 54.4184 146.383 53.1925ZM116.449 45.1781C116.994 43.7911 117.507 42.4919 118.018 41.1906L118.262 41.2496C118.262 41.9332 118.159 42.6349 118.29 43.2953C118.414 43.9035 118.79 44.4676 119.11 45.1778L116.449 45.1781ZM140.954 51.9611C140.637 52.2117 140.399 52.5536 140.1 52.8293C139.586 53.3051 138.944 53.2209 138.843 52.5929C138.747 52.0113 138.912 51.383 139.013 50.7834C139.112 50.1961 139.367 49.7756 140.045 49.5162C140.65 49.28 141.128 48.7449 141.827 48.2221C141.984 49.6687 142.231 50.9462 140.954 51.9611Z" fill="#11B0C8"/>
<path d="M102.044 25.502C101.371 25.6095 100.667 25.6631 100.043 25.903C99.2937 26.1894 98.55 26.5706 97.9131 27.0429C96.0078 28.4569 94.146 29.9278 92.2821 31.3937C91.8195 31.7588 91.4166 32.208 90.7479 32.1472C90.171 32.0953 89.7045 32.312 89.2776 32.6393C88.5918 33.1619 87.9288 33.7168 87.2355 34.2321C86.9169 34.4686 86.5725 34.6904 86.2035 34.8444C85.5837 35.1058 84.9354 35.3078 84.291 35.5368C83.8584 34.8085 83.8227 34.0478 84.246 33.2587C84.4185 32.9403 84.5646 32.5949 84.6246 32.2458C84.8025 31.2185 85.044 30.1947 84.4146 29.1889C84.2256 28.8883 84.2892 28.4391 84.2553 28.0545C84.2103 27.5497 84.3285 26.9733 84.1167 26.5511C83.7606 25.8477 83.8917 25.2338 84.126 24.5771C84.2157 24.3211 84.3135 24.0669 84.3864 23.8075C84.7107 22.6639 84.8154 21.5042 84.5679 20.3356C84.2964 19.0398 83.1294 18.6353 82.0203 19.439C81.8199 19.5823 81.6213 19.7254 81.4395 19.8561C80.3268 19.5875 80.1132 19.6162 79.6245 20.3104C79.4052 20.6219 79.2441 21.012 79.1973 21.3826C79.1355 21.914 79.2198 22.4601 79.2084 23.0004C79.1769 24.6757 79.3284 26.3849 79.0341 28.0169C78.6522 30.1322 78.15 32.2478 77.3259 34.272C77.0787 34.8785 77.0037 35.5497 76.8501 36.1904C76.7058 36.8006 76.6008 37.4217 76.4097 38.0179C76.1118 38.9592 75.7296 39.8772 75.4338 40.8222C75.3309 41.1553 75.3252 41.54 75.3702 41.8911C75.4452 42.4706 75.8067 42.886 76.3908 43.072C76.9173 43.2402 77.3013 42.9791 77.6217 42.6122C78 42.1737 78.3672 41.7263 78.7548 41.2915C78.9216 41.1051 79.1202 40.9458 79.3053 40.7741L79.5282 40.8939C79.3971 41.4021 79.2567 41.9123 79.1349 42.4262C79.0431 42.802 78.9195 43.1832 78.9138 43.5627C78.8949 44.9586 78.6888 46.2885 77.9079 47.5178C77.5821 48.0335 77.3964 48.7349 77.9511 49.1857C78.5562 49.6799 78.4851 50.2184 78.3744 50.8092C78.0279 52.6685 77.6757 54.5244 77.3085 56.3786C77.2449 56.7008 77.1417 57.023 76.9956 57.3182C76.4898 58.3331 76.3176 59.4229 76.0629 60.5055C75.7914 61.6689 76.3569 62.4064 77.0781 63.1384C77.5146 63.5841 77.9529 63.6306 78.393 63.1955C78.8202 62.775 79.2621 62.2811 79.4421 61.7423C79.8129 60.6256 80.2119 59.5304 80.7363 58.4727C80.8674 58.2042 80.9403 57.9038 81.006 57.6137C81.2625 56.4703 81.5043 55.3247 81.7533 54.1808C81.9873 53.0982 82.2237 52.017 82.4913 50.7949C83.4915 51.2423 83.9748 50.616 84.4956 50.0218C84.6117 49.886 84.8328 49.8341 85.0575 49.7174C85.2675 50.2505 85.374 50.7392 85.6401 51.1296C85.9062 51.5177 86.337 51.8058 86.6871 52.1443L86.9025 52.4375C87.693 53.8354 88.5678 55.2138 88.6839 56.8496C88.7568 57.8659 89.2872 58.5928 90.072 59.1942C91.0011 59.9047 91.5276 60.8638 91.7598 61.9269C92.082 63.3838 92.85 64.6025 93.7641 65.7444C94.1706 66.2523 94.3635 66.766 94.4346 67.3782C94.4928 67.8792 94.5396 68.4201 94.7721 68.8564C95.1615 69.5887 95.4594 70.3133 95.523 71.1436C95.568 71.7504 96.0699 72.1119 96.6657 72.1207C97.3287 72.1279 97.653 71.8645 97.8141 71.1757C97.842 71.0614 97.8459 70.9396 97.8666 70.7607C98.8089 70.775 99.2751 70.5368 99.3951 69.8461C99.5598 68.9011 99.6666 67.9417 99.279 67.0059C99.0936 66.5602 98.9418 66.1022 98.7846 65.6458C97.863 62.9682 96.9771 60.2894 96.8235 57.4328C96.7839 56.7581 96.402 56.0493 96.0105 55.4568C95.3454 54.4548 94.8432 53.4401 94.6449 52.2463C94.3752 50.6318 93.684 50.0645 91.9998 49.7962C91.3668 49.6942 90.7935 49.5079 90.3945 48.9673C89.4897 47.7417 88.5588 46.5336 87.6447 45.3183C87.5154 45.1463 87.4161 44.9586 87.3039 44.7777C86.9985 44.2944 86.7138 43.7986 86.3877 43.3297C85.7283 42.3758 86.0937 41.2536 87.2253 40.8383C87.9294 40.5823 88.6377 40.3427 89.34 40.085C91.3404 39.353 92.7285 38.111 93.2475 36.0405C93.5508 34.8398 94.2009 33.8211 95.5122 33.3487C95.7762 33.2539 96.0105 33.0893 96.267 32.9784C97.5765 32.4003 98.5185 31.4696 99.1311 30.2328C99.369 29.755 99.7566 29.4455 100.173 29.109C101.057 28.395 101.872 27.6022 102.692 26.8182C102.939 26.5838 103.099 26.2794 102.9 25.9217C102.716 25.5877 102.418 25.441 102.044 25.502Z" fill="#11B0C8"/>
<path d="M242.37 64.4532C242.681 64.0416 242.782 63.5584 242.63 63.0826C242.385 62.3127 242.109 61.5471 241.782 60.8042C241.244 59.5997 240.937 58.4042 241.158 57.0531C241.504 54.9269 241.011 52.9062 239.655 51.1772C239.074 50.4383 238.863 49.7384 238.99 48.8596C239.071 48.3012 239.065 47.7268 238.721 47.2026C237.934 46.0088 237.179 44.7989 235.819 44.0778C235.343 43.8272 235.36 43.2884 235.828 42.9897C236.115 42.8089 236.456 42.714 236.757 42.5529C237.302 42.2648 237.876 42.0034 238.366 41.642C238.977 41.1909 239.625 40.8741 240.385 40.7363C240.679 40.6824 240.963 40.5339 241.232 40.3946C242.15 39.9222 242.751 39.165 243.276 38.3292C243.582 37.8425 243.692 37.3323 243.628 36.7791C243.587 36.4214 243.582 36.0525 243.478 35.7108C243.332 35.2313 243.227 34.6709 242.896 34.3273C242.27 33.6741 241.867 32.9062 241.373 32.185C241.073 31.7431 240.963 31.4011 241.287 30.8909C241.765 30.1428 241.578 29.4753 240.91 28.8739C240.172 28.2153 239.328 27.918 238.32 28.1364C237.479 28.317 236.7 28.1275 235.956 27.7661C234.789 27.1969 234.039 27.2525 233.181 28.176C232.311 29.1155 231.542 30.1448 230.733 31.1363C230.606 31.2916 230.49 31.4564 230.342 31.6533C229.853 31.2237 229.892 30.7066 229.828 30.2128C229.686 29.1138 229.57 28.0095 229.339 26.9286C229.203 26.2863 228.749 26.0068 228.223 26.0031C227.648 25.9962 227.116 26.3897 226.941 27.0091C226.871 27.2559 226.9 27.5316 226.891 27.7948C226.861 28.5698 226.88 29.3483 226.796 30.1196C226.636 31.6069 226.296 33.0853 226.256 34.5744C226.215 36.2084 225.964 37.7886 225.6 39.3762C225.479 39.9148 225.543 40.5001 225.58 41.0619C225.627 41.785 226.078 42.2557 226.728 42.5973C227.537 43.0198 227.73 43.5443 227.384 44.3833C227.191 44.8577 226.925 45.3034 226.732 45.7795C226.401 46.5958 226.346 47.4364 226.805 48.2169C227.301 49.0636 227.316 49.8759 227.037 50.8032C226.818 51.5332 226.728 52.3547 226.831 53.1042C226.964 54.071 226.973 55.0123 226.851 55.9662C226.801 56.3526 226.752 56.7518 226.805 57.131C226.848 57.4334 226.979 57.7788 227.193 57.9989C227.992 58.8221 229.274 58.6269 229.729 57.5587C229.991 56.9378 230.098 56.2219 230.109 55.5489C230.128 54.5052 230.349 53.5513 230.797 52.5957C231.123 51.9012 231.24 51.1067 231.392 50.3477C231.482 49.8897 231.456 49.4136 231.476 49.0754C231.699 49.233 231.976 49.4156 232.245 49.6122C233.514 50.5409 234.431 51.7453 235.212 53.0609C235.504 53.5534 235.845 54.0455 236.265 54.4373C237.164 55.2751 237.507 56.2608 237.447 57.4386C237.418 58.0007 237.422 58.6112 237.624 59.1214C238.014 60.1108 238.277 61.1166 238.486 62.151C238.681 63.0977 239.071 63.9929 239.835 64.6762C240.639 65.3948 241.734 65.2962 242.37 64.4532ZM235.077 38.4091C234.834 38.8422 234.438 39.1951 234.075 39.621C233.854 39.4725 233.655 39.4063 233.575 39.2739C233.211 38.6763 232.779 38.1517 232.211 37.706C232.003 37.5432 231.999 37.1477 231.883 36.8003C232.859 36.5839 233.399 36.0898 233.728 35.3061C234.288 33.9836 234.601 33.8475 236.478 34.0174C235.099 34.9068 235.109 35.9682 235.404 37.1583C235.499 37.5361 235.285 38.0354 235.077 38.4091Z" fill="#11B0C8"/>
<path d="M242.647 42.8963C241.928 43.0768 241.626 43.5549 241.768 44.2385C241.933 45.0331 242.437 45.4825 243.278 45.4108C244.012 45.3484 244.61 45.5989 245.258 45.8333C246.234 46.1876 246.98 47.061 248.199 46.9199C248.122 47.1507 248.104 47.3063 248.027 47.4278C247.536 48.2278 247.354 49.0851 247.324 50.0066C247.309 50.4257 247.094 50.8714 246.863 51.2454C246.554 51.7502 246.455 52.2546 246.614 52.7952C246.74 53.2263 246.884 53.6648 247.113 54.0515C247.384 54.5112 247.399 54.8873 247.165 55.3846C246.665 56.4586 246.53 57.5756 247.15 58.6797C247.249 58.8585 247.328 59.0804 247.319 59.2773C247.25 60.5622 247.358 61.899 247.019 63.1164C246.545 64.8095 246.504 66.4902 246.545 68.1957C246.564 68.9762 246.732 69.7564 247.242 70.4004C247.731 71.0161 248.34 70.9642 248.746 70.3001C248.84 70.1479 248.89 69.9693 248.947 69.797C249.222 68.9418 249.494 68.0845 249.758 67.222C249.898 66.7637 250.078 66.3077 250.138 65.8385C250.389 63.8197 250.629 61.7973 250.822 59.7731C250.928 58.6493 251.116 57.5756 251.822 56.634C251.981 56.4213 252.124 56.1528 252.144 55.9002C252.212 55.0375 252.337 54.1624 251.996 53.3174C251.839 52.9311 251.858 52.5622 252.073 52.1973C252.717 51.1004 252.779 49.9261 252.622 48.7091C252.549 48.1541 252.558 47.5869 252.53 47.0269L252.759 46.8675C253.085 47.0125 253.472 47.0911 253.725 47.3132C254.802 48.2599 256.114 48.3568 257.427 48.1633C258.154 48.0544 258.699 48.1616 259.255 48.5626C259.974 49.0831 260.8 49.352 261.705 49.3858C262.977 49.4285 263.462 49.0117 263.52 47.836C263.777 47.6589 264.049 47.5032 264.285 47.308C264.931 46.7692 264.991 46.1036 264.386 45.5109C264.09 45.2191 263.702 44.9686 263.305 44.8256C262.783 44.6375 262.217 44.5352 261.66 44.4656C261.262 44.4157 260.962 44.2867 260.698 43.9915C260.183 43.4099 259.495 43.1451 258.703 43.1325C258.109 43.1236 257.513 43.1304 256.906 43.1304C256.106 42.0782 255.861 42.0031 254.372 42.1929C253.733 42.2714 253.078 42.4256 252.332 42.1141C252.484 41.6523 252.583 41.1817 252.789 40.7626C253.407 39.5029 253.825 38.1836 254.083 36.8272C254.365 35.3508 254.664 33.8887 255.395 32.539L255.451 32.3673C255.614 31.3312 255.646 30.3343 254.715 29.5521C253.973 28.931 253.956 28.7682 254.449 27.9556C254.953 27.1252 255.501 26.3181 255.959 25.4659C256.225 24.9703 256.455 24.4172 256.515 23.8714C256.631 22.7745 255.844 22.1462 254.69 22.3216C253.658 22.479 253.04 23.1127 252.629 23.9844C252.336 24.6089 252.017 25.2229 251.704 25.8437C250.902 27.433 250.058 29.0026 249.821 30.7978C249.737 31.4404 249.479 32.0649 249.252 32.684C248.902 33.6523 248.615 34.6331 248.634 35.6658C248.645 36.3709 248.484 37.0262 248.156 37.6596C247.714 38.5186 247.596 39.4138 247.795 40.3711C248.018 41.4451 247.669 41.8263 246.549 41.8315C245.939 41.8332 245.353 41.8868 244.865 42.2789C244.436 42.6243 243.938 42.753 243.391 42.7836C243.141 42.7977 242.888 42.8355 242.647 42.8963Z" fill="#11B0C8"/>
<path d="M72.2256 50.4503C71.1036 51.2216 70.371 51.2291 69.234 50.4701C68.8986 50.2465 68.5821 49.9977 68.2431 49.7828C67.6494 49.4036 67.0275 49.278 66.4185 49.7507C66.0495 50.0353 65.6748 50.0281 65.2812 49.8349C64.62 49.5073 64.0017 49.6329 63.4119 49.9906C62.9607 50.2609 62.541 50.583 62.082 50.8373C61.449 51.1844 60.8625 50.8642 60.8532 50.1697C60.8493 49.9367 60.8982 49.6862 60.9972 49.4735C61.1994 49.037 61.4394 48.6162 61.6848 48.2009C61.9938 47.6818 62.3853 47.1971 62.6328 46.6528C63.2004 45.4002 62.9925 44.7811 61.848 44.056C61.7187 43.9737 61.5876 43.8949 61.3794 43.7659C61.5423 42.6062 62.3217 41.9243 63.1458 41.2639C64.251 40.3797 65.3673 39.5063 66.4314 38.5774C67.0272 38.0566 67.4223 37.4054 67.0065 36.5928C67.6002 36.2348 68.1978 36.0986 68.8404 36.1041C69.3744 36.1078 69.9084 36.1095 70.4421 36.0897C71.7909 36.0396 72.9672 35.63 73.7952 34.5526C74.1456 34.0943 74.3082 33.5717 74.0127 33.0329C73.743 32.5373 73.2783 32.3117 72.6903 32.3367C71.658 32.3794 70.6242 32.394 69.5958 32.4817C69.1293 32.5227 68.7528 32.5264 68.4213 32.1452C68.058 31.7281 67.5522 31.5903 66.9807 31.6244C65.5626 31.7121 64.2813 32.1667 63.1968 33.0366C62.8617 33.3052 62.5299 33.7434 62.4756 34.139C62.3427 35.1376 61.7694 35.6031 60.8049 35.7693L60.357 35.9017C58.4802 36.4154 57.8601 37.1437 57.6033 38.9692C57.4983 39.7316 57.3915 40.5531 57.0246 41.2118C56.4999 42.1424 56.2248 43.082 56.1648 44.1144C56.1273 44.7966 55.8501 45.3853 55.3632 45.8932C55.0242 46.2458 54.6402 46.5877 54.4155 47.0051C54.1194 47.5508 53.8647 48.1504 53.7615 48.7552C53.6304 49.5088 54.1455 50.0006 54.9399 50.0579C55.0824 50.0685 55.2246 50.0597 55.4568 50.0597C55.2525 50.3947 55.0485 50.6306 54.951 50.9046C54.7617 51.436 54.5406 51.9803 54.492 52.5295C54.4152 53.3885 54.8421 53.7895 55.7583 53.8575C56.1963 53.8916 56.6367 53.8721 57.0768 53.881C57.9912 53.9025 58.2777 54.1905 58.0998 55.0458C57.9387 55.8352 58.1034 56.5151 58.7874 56.9625C59.4186 57.3798 59.5479 57.9238 59.5629 58.5808C59.5722 58.9978 59.6172 59.4238 59.7387 59.823C59.8305 60.1234 60.0216 60.4244 60.2463 60.6568C60.6321 61.0612 61.1715 61.1057 61.5855 60.7391C61.9431 60.4189 62.2617 60.0285 62.496 59.6169C62.8536 58.9869 63.0918 58.2924 63.4419 57.659C63.7191 57.1617 64.0431 56.6744 64.4232 56.2471C64.7547 55.8727 65.1687 55.701 65.7588 55.914C66.1185 56.0444 66.63 55.9587 67.014 55.8191C67.473 55.6529 67.9095 55.3717 68.2764 55.0567C68.9151 54.5038 69.5952 54.3519 70.44 54.486C72.3789 54.7939 74.1621 53.5697 74.4729 51.7192C74.5383 51.338 74.454 50.8582 74.25 50.5309C73.818 49.8315 73.1154 49.8384 72.2256 50.4503Z" fill="#11B0C8"/>
<path d="M222.285 45.527C221.598 44.7341 221.429 43.9754 221.892 43.0516C222.186 42.4578 222.489 41.8544 222.671 41.2244C223.123 39.678 223.089 38.1532 222.276 36.6911C222.106 36.385 222.025 36.0144 221.987 35.6656C221.901 34.9229 221.635 34.3052 221.058 33.7632C220.039 32.8039 218.941 32.0039 217.572 31.5439C215.688 30.9139 213.938 31.1234 212.481 32.4063C211.544 33.2315 210.821 34.2748 209.987 35.2072C209.729 35.4953 209.448 35.7908 209.118 35.9912C207.659 36.8771 206.522 37.9884 206.237 39.6924C206.068 40.6893 205.703 41.5534 204.997 42.35C204.09 43.3735 204.017 44.9124 204.796 45.8669C205.825 47.1283 206.01 48.5208 205.801 50.0313C205.718 50.6237 205.679 51.2214 205.608 51.9431C205.688 52.4797 205.713 53.1475 205.902 53.77C206.12 54.4929 206.724 54.8724 207.393 54.7096C208.174 54.5161 208.717 54.8615 209.307 55.2144C209.777 55.497 210.264 55.7618 210.774 55.9731C211.074 56.0986 211.285 56.2307 211.443 56.5263C211.946 57.4693 212.564 57.7843 213.677 57.5787C214.531 57.4194 215.348 57.1064 216.247 57.2672C216.446 57.303 216.701 57.2296 216.88 57.1279C217.794 56.6102 218.84 56.2075 219.567 55.5079C220.863 54.2605 222.046 52.8827 223.122 51.451C223.764 50.5954 224.239 49.5859 223.939 48.4118C223.654 47.2972 223.016 46.3736 222.285 45.527ZM215.427 48.5729C215.892 49.491 215.862 49.5056 215.768 50.4091C215.189 50.4629 214.581 50.5186 214.039 50.565C213.588 49.8957 213.189 49.2961 212.782 48.7019C212.438 48.2043 212.011 47.8139 211.336 47.8446C210.842 47.8661 210.671 47.5869 210.591 47.2006C210.505 46.7904 210.434 46.3754 210.346 45.9655C210.097 44.8144 210.379 43.8069 211.301 43.0267C212.202 42.264 212.563 41.3889 212.359 40.2292C212.198 39.3129 212.876 38.7669 213.691 38.3856C213.55 38.962 213.397 39.5365 213.279 40.1163C213.035 41.294 213.549 42.1565 214.543 42.8046C214.777 42.9565 215.034 43.0731 215.266 43.2271C215.864 43.6206 215.986 43.9537 215.757 44.614C215.65 44.9256 215.497 45.2243 215.366 45.5304C214.929 46.5528 214.91 47.5566 215.427 48.5729Z" fill="#11B0C8"/>
<path d="M49.8333 40.5571C49.7976 39.4295 50.0001 38.3524 50.4177 37.3016C50.727 36.5249 50.8878 35.7034 50.4945 34.9358C50.0577 34.0837 49.9569 33.2321 50.1312 32.3229V31.9632C50.0823 31.2741 49.7415 30.9376 49.0167 30.8732C48.3705 30.8196 47.7765 30.9589 47.2296 31.308C47.0385 31.4315 46.7859 31.5479 46.5684 31.5353C45.4278 31.4691 45.0024 31.7714 45.1467 32.8219C45.3003 33.9601 45.1578 35.027 44.742 36.0826C44.6763 36.2491 44.6595 36.4317 44.6202 36.6088C44.4777 37.2549 44.5713 37.8061 45.2814 38.1125C45.7329 38.3074 45.8376 38.6903 45.7611 39.0896C45.6879 39.4657 45.525 39.8288 45.375 40.1868C45.1203 40.799 44.8056 41.3895 44.5866 42.0103C44.2287 43.0324 44.3394 43.9703 45.3021 44.6788C45.6786 44.9563 45.8733 45.3194 45.8526 45.7669C45.8115 46.662 45.8094 47.5623 45.6804 48.4463C45.5943 49.051 45.4761 49.6401 45.7572 50.2076C46.0137 50.7229 46.0551 51.2475 45.924 51.7843C45.7647 52.443 45.909 53.0334 46.2912 53.5794C46.6377 54.0719 46.7631 54.6139 46.7463 55.2009C46.7352 55.7398 46.7445 56.2803 46.7445 56.8206H46.7184C46.7184 57.4503 46.6977 58.0821 46.7241 58.7124C46.7559 59.4748 46.9338 60.2048 47.5107 60.7758C48.1494 61.4058 48.912 61.3321 49.401 60.5987C49.53 60.3983 49.6503 60.1638 49.6761 59.9345C49.7604 59.2243 49.8879 58.5011 49.8336 57.7943C49.7079 56.0831 49.8879 54.4442 50.7531 52.9082C50.901 52.6508 50.946 52.3409 51.0567 52.0598C51.5268 50.8895 51.3807 49.7673 50.772 48.681L50.6841 48.5213C50.3769 47.9381 50.388 47.3797 50.7627 46.8142C51.0642 46.3596 51.291 45.8566 51.6075 45.4109C52.3251 44.4105 52.2237 43.1147 50.8263 42.3328C50.0505 41.8994 49.8558 41.3158 49.8333 40.5571Z" fill="#11B0C8"/>
<path d="M46.218 27.6282C46.9524 28.2009 47.8083 28.4087 48.6867 28.1043C49.5933 27.7911 50.0298 27.0645 50.1009 26.1501C50.1963 24.9225 50.3799 23.7198 50.6889 22.5188C51.0204 21.2267 50.1963 20.4265 48.6864 20.6271C48.7671 20.194 48.8493 19.8506 48.8907 19.5015C49.0221 18.4671 48.2238 17.5043 47.2761 17.6081C46.5531 17.6869 45.8805 17.9411 45.3672 18.4851C44.7939 19.0936 44.5935 20.0438 45.0639 20.7277C45.4854 21.3328 45.3618 21.8175 45.0414 22.385C44.7135 22.9631 44.4027 23.5627 44.2023 24.1856C43.9341 25.0323 44.0466 25.8589 44.7849 26.4926C45.2478 26.8873 45.7383 27.2539 46.218 27.6282Z" fill="#11B0C8"/>
<path d="M260.225 75.2771V75.4493H259.706V76.7414H259.497V75.4493H258.977V75.2771" fill="#11B0C8"/>
<path d="M260.368 75.2771H260.664L261.108 76.5141L261.548 75.2771H261.842V76.7414H261.647V75.8844L261.649 75.7268V75.5064L261.209 76.7414H261.004L260.553 75.5064V75.5496L260.564 75.7142V76.7414H260.368" fill="#11B0C8"/>
</g>
<defs>
<clipPath id="clip0_135_10936">
<rect width="300" height="84" fill="white"/>
</clipPath>
</defs>
</svg>
